<?xml version="1.0" standalone="no"?>
<!DOCTYPE svg PUBLIC "-//W3C//DTD SVG 20010904//EN"
 "http://www.w3.org/TR/2001/REC-SVG-20010904/DTD/svg10.dtd">
<svg version="1.0" xmlns="http://www.w3.org/2000/svg"
 width="2048.000000pt" height="2048.000000pt" viewBox="0 0 2048.000000 2048.000000"
 preserveAspectRatio="xMidYMid meet">

<g transform="translate(0.000000,2048.000000) scale(0.100000,-0.100000)"
fill="#000000" stroke="none">
<path d="M14020 15474 c-19 -2 -77 -9 -128 -15 -273 -32 -517 -128 -717 -284
-127 -99 -221 -205 -342 -385 -124 -184 -253 -257 -494 -280 -79 -8 -754 -10
-2199 -8 l-2085 3 -78 22 c-161 46 -239 109 -360 287 -283 420 -642 612 -1206
646 -316 19 -1088 -35 -1513 -105 -1181 -195 -1704 -677 -2148 -1983 -129
-377 -183 -569 -405 -1442 -372 -1461 -847 -3308 -1065 -4140 -208 -794 -220
-855 -220 -1104 0 -289 67 -509 228 -746 151 -223 422 -480 713 -675 416 -280
1004 -343 1494 -160 284 106 479 248 747 541 238 261 380 444 798 1029 605
846 763 1015 1025 1093 66 20 102 24 205 24 148 1 255 -19 468 -87 769 -243
1460 -362 2412 -415 288 -16 1267 -32 1540 -25 1241 31 2114 160 3035 450 244
77 314 90 480 90 128 0 148 -3 229 -29 252 -83 406 -251 1036 -1131 451 -631
595 -810 870 -1086 212 -213 295 -276 479 -368 536 -269 1225 -223 1696 114
461 330 735 650 845 984 48 149 63 269 57 464 -6 220 -21 298 -147 767 -258
961 -496 1882 -875 3380 -423 1676 -442 1749 -514 2002 -214 744 -433 1251
-693 1604 -101 136 -314 349 -435 434 -438 307 -960 444 -1963 515 -211 15
-701 27 -770 19z m522 -2173 c336 -88 590 -351 675 -699 26 -107 22 -303 -10
-423 -92 -351 -377 -615 -730 -680 -88 -15 -259 -13 -348 5 -320 67 -585 301
-687 607 -77 235 -64 468 39 687 126 272 372 461 672 518 99 19 289 11 389
-15z m-8472 -2 c169 -27 317 -146 382 -307 23 -56 23 -62 28 -577 l5 -520 520
-5 c515 -5 521 -5 577 -28 121 -49 219 -145 273 -267 38 -85 48 -189 43 -439
-4 -186 -8 -231 -26 -283 -37 -116 -114 -210 -225 -277 -106 -63 -138 -66
-681 -66 l-485 0 -3 -523 -3 -524 -42 -85 c-67 -135 -178 -226 -320 -263 -80
-21 -544 -21 -622 0 -180 48 -323 196 -360 373 -7 34 -11 223 -11 537 l0 485
-479 0 c-281 0 -500 4 -532 10 -182 34 -338 179 -384 355 -22 87 -22 558 1
636 49 168 174 294 343 345 35 11 153 14 548 14 l503 0 0 488 c0 394 3 499 15
550 45 190 201 337 395 372 67 12 465 11 540 -1z m7065 -2294 c380 -67 684
-376 746 -760 16 -102 6 -299 -19 -385 -103 -346 -367 -595 -704 -664 -99 -20
-277 -21 -375 0 -334 69 -600 317 -699 651 -37 126 -44 302 -16 433 57 275
224 499 472 633 174 95 389 128 595 92z m2750 -13 c233 -63 416 -196 546 -396
294 -452 132 -1065 -346 -1313 -138 -71 -230 -95 -386 -101 -219 -7 -380 36
-549 149 -202 135 -346 346 -395 579 -20 93 -19 280 1 378 73 355 351 633 714
713 109 24 309 20 415 -9z"/>
</g>
</svg>
